<svg xmlns="http://www.w3.org/2000/svg" width="1290" height="2796" viewBox="0 0 1290 2796"><defs>
    <linearGradient id="bg" x1="0" y1="0" x2="0.4" y2="1"><stop offset="0" stop-color="#0F1B0E"/><stop offset="0.5" stop-color="#0B0E0B"/><stop offset="1" stop-color="#0A0C0A"/></linearGradient>
    <radialGradient id="aura" cx="50%" cy="8%" r="60%"><stop offset="0" stop-color="#3DDC97" stop-opacity="0.20"/><stop offset="1" stop-color="#3DDC97" stop-opacity="0"/></radialGradient>
    <filter id="glow" x="-60%" y="-60%" width="220%" height="220%"><feGaussianBlur stdDeviation="10" result="b"/><feMerge><feMergeNode in="b"/><feMergeNode in="SourceGraphic"/></feMerge></filter>
    <filter id="softglow" x="-80%" y="-80%" width="260%" height="260%"><feGaussianBlur stdDeviation="26" result="b"/><feMerge><feMergeNode in="b"/><feMergeNode in="SourceGraphic"/></feMerge></filter></defs><rect width="1290" height="2796" fill="url(#bg)"/><rect width="1290" height="2796" fill="url(#aura)"/><text x="645.0" y="230" font-family="'Helvetica Neue','Arial',sans-serif" font-weight="800" font-size="86" fill="#F2F4F7" text-anchor="middle" letter-spacing="-1">Same word. Six guesses.</text><text x="645.0" y="320" font-family="'Menlo','Courier New',monospace" font-size="34" fill="#3DDC97" text-anchor="middle" letter-spacing="3">FASTEST SOLVER WINS</text><rect x="60" y="440" width="1170" height="2296" rx="52" fill="#0F1115" stroke="#2A2E37" stroke-width="2"/><text x="150" y="550" font-family="'Menlo','Courier New',monospace" font-size="26" fill="#3DDC97" letter-spacing="2">YOU</text><text x="645.0" y="568" font-family="'Menlo','Courier New',monospace" font-weight="700" font-size="72" fill="#F2F4F7" text-anchor="middle" letter-spacing="4">01:12</text><text x="1140" y="550" font-family="'Menlo','Courier New',monospace" font-size="26" fill="#EF4444" letter-spacing="2" text-anchor="end">NEMESIS</text><text x="645.0" y="660" font-family="'Menlo','Courier New',monospace" font-size="24" fill="#9AA1AC" text-anchor="middle" letter-spacing="2">NEMESIS’S BOARD</text><rect x="519.0" y="690" width="44" height="44" rx="7.04" fill="#3DDC97"/><rect x="571.0" y="690" width="44" height="44" rx="7.04" fill="#1F232B"/><rect x="623.0" y="690" width="44" height="44" rx="7.04" fill="#F4B940"/><rect x="675.0" y="690" width="44" height="44" rx="7.04" fill="#1F232B"/><rect x="727.0" y="690" width="44" height="44" rx="7.04" fill="#3DDC97"/><rect x="519.0" y="742" width="44" height="44" rx="7.04" fill="#1F232B"/><rect x="571.0" y="742" width="44" height="44" rx="7.04" fill="#3DDC97"/><rect x="623.0" y="742" width="44" height="44" rx="7.04" fill="#1F232B"/><rect x="675.0" y="742" width="44" height="44" rx="7.04" fill="#3DDC97"/><rect x="727.0" y="742" width="44" height="44" rx="7.04" fill="#3DDC97"/><rect x="230.0" y="860" width="150" height="150" rx="24.0" fill="#3DDC97"/><text x="305.0" y="961.25" font-family="'Helvetica Neue','Arial',sans-serif" font-weight="800" font-size="75" fill="#0B0E0B" text-anchor="middle">C</text><rect x="400.0" y="860" width="150" height="150" rx="24.0" fill="#1F232B"/><text x="475.0" y="961.25" font-family="'Helvetica Neue','Arial',sans-serif" font-weight="800" font-size="75" fill="#F2F4F7" text-anchor="middle">R</text><rect x="570.0" y="860" width="150" height="150" rx="24.0" fill="#F4B940"/><text x="645.0" y="961.25" font-family="'Helvetica Neue','Arial',sans-serif" font-weight="800" font-size="75" fill="#0B0E0B" text-anchor="middle">A</text><rect x="740.0" y="860" width="150" height="150" rx="24.0" fill="#1F232B"/><text x="815.0" y="961.25" font-family="'Helvetica Neue','Arial',sans-serif" font-weight="800" font-size="75" fill="#F2F4F7" text-anchor="middle">N</text><rect x="910.0" y="860" width="150" height="150" rx="24.0" fill="#3DDC97"/><text x="985.0" y="961.25" font-family="'Helvetica Neue','Arial',sans-serif" font-weight="800" font-size="75" fill="#0B0E0B" text-anchor="middle">E</text><rect x="230.0" y="1030" width="150" height="150" rx="24.0" fill="#1F232B"/><text x="305.0" y="1131.25" font-family="'Helvetica Neue','Arial',sans-serif" font-weight="800" font-size="75" fill="#F2F4F7" text-anchor="middle">S</text><rect x="400.0" y="1030" width="150" height="150" rx="24.0" fill="#3DDC97"/><text x="475.0" y="1131.25" font-family="'Helvetica Neue','Arial',sans-serif" font-weight="800" font-size="75" fill="#0B0E0B" text-anchor="middle">T</text><rect x="570.0" y="1030" width="150" height="150" rx="24.0" fill="#F4B940"/><text x="645.0" y="1131.25" font-family="'Helvetica Neue','Arial',sans-serif" font-weight="800" font-size="75" fill="#0B0E0B" text-anchor="middle">A</text><rect x="740.0" y="1030" width="150" height="150" rx="24.0" fill="#3DDC97"/><text x="815.0" y="1131.25" font-family="'Helvetica Neue','Arial',sans-serif" font-weight="800" font-size="75" fill="#0B0E0B" text-anchor="middle">R</text><rect x="910.0" y="1030" width="150" height="150" rx="24.0" fill="#3DDC97"/><text x="985.0" y="1131.25" font-family="'Helvetica Neue','Arial',sans-serif" font-weight="800" font-size="75" fill="#0B0E0B" text-anchor="middle">E</text><rect x="230.0" y="1200" width="150" height="150" rx="24.0" fill="#0F1115" stroke="#2A2E37" stroke-width="3"/><rect x="400.0" y="1200" width="150" height="150" rx="24.0" fill="#0F1115" stroke="#2A2E37" stroke-width="3"/><rect x="570.0" y="1200" width="150" height="150" rx="24.0" fill="#0F1115" stroke="#2A2E37" stroke-width="3"/><rect x="740.0" y="1200" width="150" height="150" rx="24.0" fill="#0F1115" stroke="#2A2E37" stroke-width="3"/><rect x="910.0" y="1200" width="150" height="150" rx="24.0" fill="#0F1115" stroke="#2A2E37" stroke-width="3"/><rect x="230.0" y="1370" width="150" height="150" rx="24.0" fill="#0F1115" stroke="#2A2E37" stroke-width="3"/><rect x="400.0" y="1370" width="150" height="150" rx="24.0" fill="#0F1115" stroke="#2A2E37" stroke-width="3"/><rect x="570.0" y="1370" width="150" height="150" rx="24.0" fill="#0F1115" stroke="#2A2E37" stroke-width="3"/><rect x="740.0" y="1370" width="150" height="150" rx="24.0" fill="#0F1115" stroke="#2A2E37" stroke-width="3"/><rect x="910.0" y="1370" width="150" height="150" rx="24.0" fill="#0F1115" stroke="#2A2E37" stroke-width="3"/><rect x="230.0" y="1570" width="260.6666666666667" height="96" rx="48" fill="#1F232B" stroke="#3DDC9755" stroke-width="2"/><text x="336.33333333333337" y="1630" font-family="'Menlo','Courier New',monospace" font-size="26" fill="#F2F4F7" text-anchor="middle" letter-spacing="1">REVEAL</text><circle cx="444.6666666666667" cy="1618" r="26" fill="#3DDC97"/><text x="444.6666666666667" y="1628" font-family="'Menlo','Courier New',monospace" font-weight="700" font-size="28" fill="#0B0E0B" text-anchor="middle">2</text><rect x="514.6666666666667" y="1570" width="260.6666666666667" height="96" rx="48" fill="#1F232B" stroke="#F4B94055" stroke-width="2"/><text x="621.0000000000001" y="1630" font-family="'Menlo','Courier New',monospace" font-size="26" fill="#F2F4F7" text-anchor="middle" letter-spacing="1">SCRAMBLE</text><circle cx="729.3333333333335" cy="1618" r="26" fill="#F4B940"/><text x="729.3333333333335" y="1628" font-family="'Menlo','Courier New',monospace" font-weight="700" font-size="28" fill="#0B0E0B" text-anchor="middle">1</text><rect x="799.3333333333334" y="1570" width="260.6666666666667" height="96" rx="48" fill="#1F232B" stroke="#7CC8FF55" stroke-width="2"/><text x="905.6666666666667" y="1630" font-family="'Menlo','Courier New',monospace" font-size="26" fill="#F2F4F7" text-anchor="middle" letter-spacing="1">LOCK</text><circle cx="1014.0" cy="1618" r="26" fill="#7CC8FF"/><text x="1014.0" y="1628" font-family="'Menlo','Courier New',monospace" font-weight="700" font-size="28" fill="#0B0E0B" text-anchor="middle">3</text><rect x="82.0" y="1720" width="100" height="112" rx="16" fill="#1F232B"/><text x="132.0" y="1794" font-family="'Helvetica Neue','Arial',sans-serif" font-weight="700" font-size="46" fill="#F2F4F7" text-anchor="middle">Q</text><rect x="196.0" y="1720" width="100" height="112" rx="16" fill="#1F232B"/><text x="246.0" y="1794" font-family="'Helvetica Neue','Arial',sans-serif" font-weight="700" font-size="46" fill="#F2F4F7" text-anchor="middle">W</text><rect x="310.0" y="1720" width="100" height="112" rx="16" fill="#3DDC97"/><text x="360.0" y="1794" font-family="'Helvetica Neue','Arial',sans-serif" font-weight="700" font-size="46" fill="#0B0E0B" text-anchor="middle">E</text><rect x="424.0" y="1720" width="100" height="112" rx="16" fill="#F4B940"/><text x="474.0" y="1794" font-family="'Helvetica Neue','Arial',sans-serif" font-weight="700" font-size="46" fill="#0B0E0B" text-anchor="middle">R</text><rect x="538.0" y="1720" width="100" height="112" rx="16" fill="#3DDC97"/><text x="588.0" y="1794" font-family="'Helvetica Neue','Arial',sans-serif" font-weight="700" font-size="46" fill="#0B0E0B" text-anchor="middle">T</text><rect x="652.0" y="1720" width="100" height="112" rx="16" fill="#1F232B"/><text x="702.0" y="1794" font-family="'Helvetica Neue','Arial',sans-serif" font-weight="700" font-size="46" fill="#F2F4F7" text-anchor="middle">Y</text><rect x="766.0" y="1720" width="100" height="112" rx="16" fill="#1F232B"/><text x="816.0" y="1794" font-family="'Helvetica Neue','Arial',sans-serif" font-weight="700" font-size="46" fill="#F2F4F7" text-anchor="middle">U</text><rect x="880.0" y="1720" width="100" height="112" rx="16" fill="#1F232B"/><text x="930.0" y="1794" font-family="'Helvetica Neue','Arial',sans-serif" font-weight="700" font-size="46" fill="#F2F4F7" text-anchor="middle">I</text><rect x="994.0" y="1720" width="100" height="112" rx="16" fill="#1F232B"/><text x="1044.0" y="1794" font-family="'Helvetica Neue','Arial',sans-serif" font-weight="700" font-size="46" fill="#F2F4F7" text-anchor="middle">O</text><rect x="1108.0" y="1720" width="100" height="112" rx="16" fill="#1F232B"/><text x="1158.0" y="1794" font-family="'Helvetica Neue','Arial',sans-serif" font-weight="700" font-size="46" fill="#F2F4F7" text-anchor="middle">P</text><rect x="139.0" y="1848" width="100" height="112" rx="16" fill="#F4B940"/><text x="189.0" y="1922" font-family="'Helvetica Neue','Arial',sans-serif" font-weight="700" font-size="46" fill="#0B0E0B" text-anchor="middle">A</text><rect x="253.0" y="1848" width="100" height="112" rx="16" fill="#3DDC97"/><text x="303.0" y="1922" font-family="'Helvetica Neue','Arial',sans-serif" font-weight="700" font-size="46" fill="#0B0E0B" text-anchor="middle">S</text><rect x="367.0" y="1848" width="100" height="112" rx="16" fill="#1F232B"/><text x="417.0" y="1922" font-family="'Helvetica Neue','Arial',sans-serif" font-weight="700" font-size="46" fill="#F2F4F7" text-anchor="middle">D</text><rect x="481.0" y="1848" width="100" height="112" rx="16" fill="#1F232B"/><text x="531.0" y="1922" font-family="'Helvetica Neue','Arial',sans-serif" font-weight="700" font-size="46" fill="#F2F4F7" text-anchor="middle">F</text><rect x="595.0" y="1848" width="100" height="112" rx="16" fill="#1F232B"/><text x="645.0" y="1922" font-family="'Helvetica Neue','Arial',sans-serif" font-weight="700" font-size="46" fill="#F2F4F7" text-anchor="middle">G</text><rect x="709.0" y="1848" width="100" height="112" rx="16" fill="#1F232B"/><text x="759.0" y="1922" font-family="'Helvetica Neue','Arial',sans-serif" font-weight="700" font-size="46" fill="#F2F4F7" text-anchor="middle">H</text><rect x="823.0" y="1848" width="100" height="112" rx="16" fill="#1F232B"/><text x="873.0" y="1922" font-family="'Helvetica Neue','Arial',sans-serif" font-weight="700" font-size="46" fill="#F2F4F7" text-anchor="middle">J</text><rect x="937.0" y="1848" width="100" height="112" rx="16" fill="#1F232B"/><text x="987.0" y="1922" font-family="'Helvetica Neue','Arial',sans-serif" font-weight="700" font-size="46" fill="#F2F4F7" text-anchor="middle">K</text><rect x="1051.0" y="1848" width="100" height="112" rx="16" fill="#1F232B"/><text x="1101.0" y="1922" font-family="'Helvetica Neue','Arial',sans-serif" font-weight="700" font-size="46" fill="#F2F4F7" text-anchor="middle">L</text><rect x="253.0" y="1976" width="100" height="112" rx="16" fill="#1F232B"/><text x="303.0" y="2050" font-family="'Helvetica Neue','Arial',sans-serif" font-weight="700" font-size="46" fill="#F2F4F7" text-anchor="middle">Z</text><rect x="367.0" y="1976" width="100" height="112" rx="16" fill="#1F232B"/><text x="417.0" y="2050" font-family="'Helvetica Neue','Arial',sans-serif" font-weight="700" font-size="46" fill="#F2F4F7" text-anchor="middle">X</text><rect x="481.0" y="1976" width="100" height="112" rx="16" fill="#3DDC97"/><text x="531.0" y="2050" font-family="'Helvetica Neue','Arial',sans-serif" font-weight="700" font-size="46" fill="#0B0E0B" text-anchor="middle">C</text><rect x="595.0" y="1976" width="100" height="112" rx="16" fill="#1F232B"/><text x="645.0" y="2050" font-family="'Helvetica Neue','Arial',sans-serif" font-weight="700" font-size="46" fill="#F2F4F7" text-anchor="middle">V</text><rect x="709.0" y="1976" width="100" height="112" rx="16" fill="#1F232B"/><text x="759.0" y="2050" font-family="'Helvetica Neue','Arial',sans-serif" font-weight="700" font-size="46" fill="#F2F4F7" text-anchor="middle">B</text><rect x="823.0" y="1976" width="100" height="112" rx="16" fill="#1F232B"/><text x="873.0" y="2050" font-family="'Helvetica Neue','Arial',sans-serif" font-weight="700" font-size="46" fill="#F2F4F7" text-anchor="middle">N</text><rect x="937.0" y="1976" width="100" height="112" rx="16" fill="#1F232B"/><text x="987.0" y="2050" font-family="'Helvetica Neue','Arial',sans-serif" font-weight="700" font-size="46" fill="#F2F4F7" text-anchor="middle">M</text></svg>